<?xml version="1.0" encoding="UTF-8"?><svg id="seed" xmlns="http://www.w3.org/2000/svg" viewBox="0 0 198.49 221.74"><defs><style>.cls-1{fill:#fff;}.cls-2{fill:#474d9c;}.cls-3{fill:#8381bd;}</style></defs><path class="cls-3" d="M99.28,0V221.73c-3.99,.04-7.99-.98-11.57-3.04L11.34,174.6c-7.02-4.05-11.34-11.54-11.34-19.64V66.77c0-8.1,4.32-15.59,11.34-19.64L87.71,3.04C91.29,.98,95.29-.04,99.28,0Z"/><path class="cls-2" d="M198.49,66.78v88.19c0,8.1-4.32,15.59-11.34,19.64l-76.37,44.09c-3.56,2.05-7.53,3.07-11.5,3.04h-.07V0h.07c3.97-.03,7.94,.99,11.5,3.04l5.09,2.94,10.85,6.26,60.43,34.89c7.02,4.05,11.34,11.54,11.34,19.64Z"/><g><path class="cls-1" d="M126.72,12.25c-1.35,4.93-3.44,9.95-6.26,15.03-4.5,8.11-10.38,16.28-17.98,24.96-1.09,1.25-2.16,2.48-3.2,3.71-.02,.03-.05,.05-.07,.08-10.5,12.41-18,24.08-13.24,37.42,2.65,7.4,8.49,14.05,12.93,18.33,.11,.11,.22,.22,.31,.33,.03,.02,.05,.05,.07,.08,1.94,2.23,1.95,5.57,0,7.82-.02,.03-.04,.06-.07,.08-.05,.06-.1,.11-.15,.17-1.18,1.22-2.75,1.84-4.32,1.84s-3-.56-4.16-1.68c-5.37-5.17-12.48-13.34-15.91-22.94-8.04-22.51,8.1-40.95,18.78-53.14,2.06-2.35,3.98-4.66,5.76-6.93,.03-.03,.05-.06,.07-.09,4.29-5.45,7.82-10.68,10.69-15.86,2.96-5.34,4.94-10.52,5.9-15.47l10.85,6.26Z"/><path class="cls-1" d="M83.53,154.48s1.34,.39,2.03,.58c3.21,.83,6.54,1.24,9.92,1.24,21.27,0,39.92-18.66,39.92-39.92,0-14.04-7.17-26.8-19.18-34.12-2.83-1.73-6.52-.83-8.25,2s-.83,6.52,2,8.25c8.41,5.12,13.42,14.04,13.42,23.87,0,14.88-13.05,27.92-27.92,27.92-2.37,0-4.7-.29-6.88-.85-.54-.15-1.67-.48-1.67-.48h0c-14.03-4.19-25.23-15.55-29.23-29.65-.9-3.19-4.22-5.04-7.41-4.14-3.19,.9-5.04,4.22-4.14,7.41,5.1,18.01,19.41,32.53,37.37,37.89Z"/><path class="cls-1" d="M129.47,71.72c-6.25-4.47-12.41-6.64-18.32-6.46-8.6,.28-16.55,5.82-19.79,13.78-3.24,7.97-1.42,17.49,4.55,23.69,1.55,1.62,3.26,2.89,4.76,4.01,1.26,.95,2.46,1.84,3.34,2.77,2.54,2.67,3.38,7.12,2,10.57-1.4,3.5-5.02,6.11-8.8,6.36-4.83,.31-9.61-2.8-12.76-5.47-8.36-7.08-14.24-17.81-16.13-29.44-1.81-11.13-.2-23.01,4.65-34.36,1.3-3.05-.11-6.57-3.16-7.88-3.05-1.3-6.57,.11-7.88,3.16-5.74,13.44-7.63,27.62-5.46,40.99,2.37,14.62,9.55,27.65,20.22,36.68,6.94,5.88,14.31,8.74,21.3,8.29,8.36-.55,16.06-6.13,19.16-13.88,3.13-7.83,1.35-17.19-4.45-23.29-1.58-1.66-3.32-2.96-4.85-4.11-1.25-.93-2.42-1.81-3.3-2.72-2.65-2.75-3.52-7.31-2.08-10.85,1.44-3.54,5.25-6.19,9.06-6.31,3.21-.13,6.89,1.32,10.94,4.22,13.45,9.63,20.52,27.79,17.19,44.17-3.34,16.41-16.58,30.29-32.96,34.54-16.15,4.19-34.67-1.34-46.07-13.78-2.24-2.44-6.04-2.61-8.48-.37-2.44,2.24-2.61,6.04-.37,8.48,11.12,12.13,27.65,19.03,44.01,19.03,4.7,0,9.38-.57,13.92-1.75,20.71-5.38,37.47-22.96,41.7-43.77,4.24-20.86-4.79-44.02-21.96-56.32Z"/></g></svg>